<svg xmlns="http://www.w3.org/2000/svg" viewBox="0 0 1200 900" fill="none"><defs><linearGradient id="bg" x1="70" y1="40" x2="1120" y2="850"><stop stop-color="#111019"/><stop offset="1" stop-color="#08080C"/></linearGradient><linearGradient id="flow" x1="190" y1="220" x2="1000" y2="680"><stop stop-color="#A35CFF"/><stop offset=".45" stop-color="#53D8FF"/><stop offset="1" stop-color="#C9FF5B"/></linearGradient><pattern id="grid" width="50" height="50" patternUnits="userSpaceOnUse"><path d="M50 0H0V50" stroke="#fff" stroke-opacity=".04"/></pattern><filter id="glow"><feGaussianBlur stdDeviation="18"/></filter></defs><rect width="1200" height="900" rx="56" fill="url(#bg)"/><rect width="1200" height="900" rx="56" fill="url(#grid)"/><ellipse cx="600" cy="450" rx="340" ry="250" fill="#53D8FF" opacity=".08" filter="url(#glow)"/><path d="M224 284H454C497 284 532 319 532 362V378C532 421 567 456 610 456H783C826 456 861 491 861 534V550C861 593 896 628 939 628H1008" stroke="url(#flow)" stroke-width="7" stroke-linecap="round"/><path d="M1000 628l-34-20v40l34-20Z" fill="#C9FF5B"/><g fill="#101018" stroke="#fff" stroke-opacity=".13"><rect x="120" y="218" width="210" height="132" rx="24"/><rect x="446" y="386" width="210" height="132" rx="24"/><rect x="758" y="514" width="210" height="132" rx="24"/></g><g fill="#E8E3EE" font-family="Arial,sans-serif" font-size="22" font-weight="700"><text x="164" y="278">ENTRADA</text><text x="504" y="446">REGRA</text><text x="818" y="574">AÇÃO</text></g><g fill="#8F8A99" font-family="Arial,sans-serif" font-size="15"><text x="164" y="310">evento / dado</text><text x="504" y="478">condição / decisão</text><text x="818" y="606">execução / status</text></g><g><circle cx="224" cy="284" r="16" fill="#A35CFF"/><circle cx="532" cy="378" r="12" fill="#53D8FF"/><circle cx="610" cy="456" r="12" fill="#A35CFF"/><circle cx="861" cy="550" r="12" fill="#53D8FF"/><circle cx="939" cy="628" r="16" fill="#C9FF5B"/></g><g fill="#13111A" stroke="#A35CFF" stroke-opacity=".4"><rect x="228" y="514" width="250" height="176" rx="26"/><rect x="588" y="196" width="270" height="162" rx="26"/></g><g stroke="#fff" stroke-opacity=".11"><path d="M266 558h172M266 592h126M266 626h154"/><path d="M628 238h188M628 272h136M628 306h164"/></g><g fill="#8F8A99" font-family="Arial,sans-serif" font-size="14"><text x="256" y="726">rotina observável</text><text x="650" y="388">fallback humano quando necessário</text><text x="720" y="790">AUTOMAÇÃO / PROCESS FLOW</text></g></svg>